<svg width="235" height="71" viewBox="0 0 235 71" fill="none" xmlns="http://www.w3.org/2000/svg">
<path d="M35.2411 0C15.7784 0 0 15.8942 0 35.5002C0 55.1071 15.7784 71 35.2411 71C54.706 71 70.4827 55.1071 70.4827 35.5002C70.4827 15.8954 54.706 0.00169569 35.2407 0.00169569L35.2411 0ZM51.4025 51.2015C50.7713 52.2443 49.4162 52.575 48.381 51.9349C40.1067 46.8436 29.6905 45.6905 17.4234 48.5138C16.2413 48.7851 15.063 48.039 14.7937 46.8478C14.5231 45.6566 15.2608 44.4696 16.4458 44.1983C29.8702 41.1087 41.3852 42.439 50.6745 48.1577C51.7097 48.7978 52.0379 50.1586 51.4025 51.2015ZM55.716 41.5352C54.9206 42.8375 53.2289 43.2487 51.9369 42.4475C42.4642 36.5821 28.0244 34.8834 16.82 38.3096C15.3668 38.7517 13.8321 37.9268 13.3911 36.4655C12.9534 35.0017 13.7728 33.4586 15.2233 33.0135C28.0219 29.1015 43.9329 30.9964 54.8112 37.7305C56.1031 38.5317 56.5113 40.2354 55.716 41.5352ZM56.0863 31.4695C44.7282 24.6736 25.9889 24.0488 15.1446 27.3643C13.4033 27.8963 11.5617 26.906 11.034 25.1518C10.5063 23.3968 11.4885 21.543 13.2312 21.0097C25.6796 17.2028 46.3736 17.9383 59.4504 25.7584C61.02 26.6949 61.5334 28.7327 60.6034 30.3084C59.6776 31.8863 57.6492 32.4064 56.088 31.4695H56.0863ZM95.8795 32.7718C89.7944 31.3102 88.7128 30.2843 88.7128 28.1286C88.7128 26.0921 90.615 24.7215 93.4471 24.7215C96.1909 24.7215 98.9094 25.7623 101.763 27.9048C101.847 27.9696 101.956 27.9955 102.061 27.9785C102.171 27.9624 102.263 27.9035 102.327 27.8149L105.298 23.596C105.42 23.4222 105.386 23.1827 105.222 23.05C101.826 20.3059 98.0047 18.9719 93.5355 18.9719C86.9664 18.9719 82.3752 22.9436 82.3752 28.6263C82.3752 34.7202 86.3352 36.878 93.1778 38.5436C98.9978 39.8946 99.9825 41.0265 99.9825 43.0494C99.9825 45.292 97.9962 46.6867 94.798 46.6867C91.2462 46.6867 88.3467 45.4785 85.1064 42.6552C85.0264 42.5831 84.917 42.5535 84.816 42.5577C84.7066 42.5662 84.6098 42.617 84.5425 42.6976L81.2095 46.6909C81.0707 46.8605 81.0875 47.1064 81.2474 47.2505C85.018 50.6419 89.6555 52.4309 94.6633 52.4309C101.742 52.4309 106.316 48.535 106.316 42.5026C106.329 37.4125 103.303 34.5934 95.8921 32.7774L95.8795 32.7718ZM122.333 26.7267C119.265 26.7267 116.748 27.9442 114.669 30.439V27.6309C114.669 27.4092 114.493 27.2286 114.274 27.2286H108.824C108.605 27.2286 108.428 27.4092 108.428 27.6309V58.8321C108.428 59.0526 108.605 59.2349 108.824 59.2349H114.274C114.493 59.2349 114.669 59.0526 114.669 58.8321V48.9844C116.748 51.3287 119.265 52.4775 122.333 52.4775C128.035 52.4775 133.808 48.056 133.808 39.6034C133.817 31.1491 128.043 26.7263 122.337 26.7263L122.333 26.7267ZM127.471 39.6034C127.471 43.9058 124.841 46.9114 121.07 46.9114C117.346 46.9114 114.535 43.7701 114.535 39.6034C114.535 35.4362 117.346 32.2958 121.07 32.2958C124.778 32.2953 127.471 35.3684 127.471 39.6034ZM148.6 26.7267C141.257 26.7267 135.504 32.4225 135.504 39.6954C135.504 46.8902 141.219 52.5241 148.512 52.5241C155.881 52.5241 161.65 46.8478 161.65 39.6034C161.65 32.3835 155.919 26.7275 148.6 26.7275V26.7267ZM148.6 46.9538C144.695 46.9538 141.749 43.7913 141.749 39.6012C141.749 35.3921 144.594 32.3377 148.512 32.3377C152.443 32.3377 155.405 35.4989 155.405 39.6932C155.405 43.9015 152.544 46.9538 148.6 46.9538ZM177.33 27.2286H171.333V21.0537C171.333 20.8325 171.157 20.6519 170.938 20.6519H165.488C165.269 20.6519 165.088 20.8325 165.088 21.0537V27.2286H162.471C162.252 27.2286 162.075 27.4092 162.075 27.6309V32.3479C162.075 32.5692 162.252 32.7502 162.471 32.7502H165.088V44.9571C165.088 49.8873 167.525 52.3885 172.335 52.3885C174.288 52.3885 175.908 51.9815 177.435 51.1082C177.562 51.0404 177.637 50.9047 177.637 50.7606V46.267C177.637 46.1314 177.566 46 177.448 45.9279C177.33 45.8516 177.183 45.8473 177.061 45.9109C176.013 46.4408 174.999 46.6867 173.863 46.6867C172.116 46.6867 171.333 45.8855 171.333 44.0965V32.7523H177.33C177.549 32.7523 177.726 32.5717 177.726 32.35V27.6335C177.734 27.4117 177.557 27.2312 177.334 27.2312L177.33 27.2286ZM198.22 27.2528V26.4944C198.22 24.2633 199.07 23.2683 200.972 23.2683C202.108 23.2683 203.022 23.4955 204.044 23.8389C204.17 23.8788 204.301 23.8588 204.402 23.783C204.507 23.7071 204.566 23.5854 204.566 23.4565V18.8315C204.566 18.6548 204.457 18.4983 204.284 18.4462C203.207 18.1227 201.826 17.7908 199.756 17.7908C194.727 17.7908 192.063 20.6455 192.063 26.0433V27.2049H189.446C189.227 27.2049 189.046 27.3855 189.046 27.6068V32.3479C189.046 32.5692 189.227 32.7502 189.446 32.7502H192.063V51.5745C192.063 51.7992 192.244 51.9773 192.463 51.9773H197.908C198.132 51.9773 198.308 51.7992 198.308 51.5745V32.7515H203.396L211.19 51.5745C210.306 53.55 209.435 53.9443 208.248 53.9443C207.289 53.9443 206.274 53.656 205.243 53.0837C205.147 53.0328 205.029 53.0244 204.928 53.054C204.823 53.0922 204.734 53.1685 204.692 53.2702L202.845 57.3526C202.756 57.5476 202.832 57.7723 203.017 57.8741C204.945 58.9254 206.683 59.3747 208.833 59.3747C212.856 59.3747 215.082 57.484 217.039 52.4054L226.491 27.8022C226.541 27.6784 226.525 27.5385 226.449 27.4287C226.377 27.3198 226.255 27.254 226.125 27.254H220.452C220.28 27.254 220.128 27.363 220.073 27.5237L214.262 44.2407L207.899 27.5126C207.84 27.3571 207.693 27.254 207.529 27.254H198.22V27.2528ZM186.109 27.2286H180.659C180.44 27.2286 180.259 27.4092 180.259 27.6309V51.5745C180.259 51.7992 180.44 51.9773 180.659 51.9773H186.109C186.327 51.9773 186.508 51.7992 186.508 51.5745V27.6326C186.508 27.4109 186.332 27.2303 186.109 27.2303V27.2286ZM183.415 16.3257C181.256 16.3257 179.506 18.0859 179.506 20.2602C179.506 22.4357 181.256 24.198 183.415 24.198C185.574 24.198 187.321 22.4357 187.321 20.2602C187.321 18.0863 185.57 16.3257 183.415 16.3257ZM231.145 34.9275C228.991 34.9275 227.312 33.183 227.312 31.0647C227.312 28.9464 229.012 27.182 231.166 27.182C233.321 27.182 235 28.926 235 31.0427C235 33.161 233.3 34.9275 231.145 34.9275ZM231.166 27.5661C229.201 27.5661 227.716 29.1388 227.716 31.0647C227.716 32.9897 229.193 34.5413 231.145 34.5413C233.111 34.5413 234.596 32.9698 234.596 31.0427C234.596 29.1176 233.119 27.5661 231.166 27.5661ZM232.016 31.4399L233.102 32.9694H232.185L231.208 31.5662H230.371V32.9694H229.605V28.915H231.398C232.336 28.915 232.951 29.397 232.951 30.2084C232.955 30.8731 232.572 31.2792 232.021 31.4399H232.016ZM231.368 29.6106H230.371V30.893H231.368C231.865 30.893 232.164 30.6476 232.164 30.2512C232.164 29.834 231.865 29.6106 231.368 29.6106Z" fill="#62CD5D"/>
</svg>
